<svg xmlns="http://www.w3.org/2000/svg" xmlns:xlink="http://www.w3.org/1999/xlink" width="250" zoomAndPan="magnify" viewBox="0 0 187.5 44.999999" height="60" preserveAspectRatio="xMidYMid meet" version="1.2"><defs><clipPath id="407beb50f5"><path d="M 100.101562 16 L 114 16 L 114 27 L 100.101562 27 Z M 100.101562 16 "/></clipPath><clipPath id="4c5a8242e2"><path d="M 119 4.546875 L 120 4.546875 L 120 11 L 119 11 Z M 119 4.546875 "/></clipPath><clipPath id="a798194768"><path d="M 110 34 L 129 34 L 129 36.710938 L 110 36.710938 Z M 110 34 "/></clipPath></defs><g id="f454c005c3"><g style="fill:#0cc0df;fill-opacity:1;"><g transform="translate(23.828386, 18.487256)"><path style="stroke:none" d="M 4.875 0.203125 C 4.195312 0.203125 3.570312 0.113281 3 -0.0625 C 2.4375 -0.238281 1.957031 -0.484375 1.5625 -0.796875 C 1.164062 -1.109375 0.890625 -1.457031 0.734375 -1.84375 L 1.65625 -2.8125 L 1.859375 -2.8125 C 2.210938 -2.28125 2.632812 -1.878906 3.125 -1.609375 C 3.613281 -1.347656 4.195312 -1.21875 4.875 -1.21875 C 5.664062 -1.21875 6.265625 -1.367188 6.671875 -1.671875 C 7.078125 -1.972656 7.28125 -2.398438 7.28125 -2.953125 C 7.28125 -3.367188 7.15625 -3.710938 6.90625 -3.984375 C 6.664062 -4.265625 6.265625 -4.472656 5.703125 -4.609375 L 3.90625 -5.0625 C 2.945312 -5.289062 2.242188 -5.65625 1.796875 -6.15625 C 1.359375 -6.664062 1.140625 -7.289062 1.140625 -8.03125 C 1.140625 -8.613281 1.285156 -9.117188 1.578125 -9.546875 C 1.878906 -9.972656 2.304688 -10.300781 2.859375 -10.53125 C 3.421875 -10.769531 4.085938 -10.890625 4.859375 -10.890625 C 5.835938 -10.890625 6.609375 -10.75 7.171875 -10.46875 C 7.734375 -10.195312 8.175781 -9.816406 8.5 -9.328125 L 7.609375 -8.453125 L 7.40625 -8.453125 C 7.070312 -8.847656 6.703125 -9.132812 6.296875 -9.3125 C 5.890625 -9.488281 5.410156 -9.578125 4.859375 -9.578125 C 4.148438 -9.578125 3.609375 -9.445312 3.234375 -9.1875 C 2.859375 -8.9375 2.671875 -8.570312 2.671875 -8.09375 C 2.671875 -7.664062 2.800781 -7.316406 3.0625 -7.046875 C 3.332031 -6.785156 3.796875 -6.578125 4.453125 -6.421875 L 6.234375 -5.984375 C 7.160156 -5.765625 7.828125 -5.398438 8.234375 -4.890625 C 8.648438 -4.378906 8.859375 -3.738281 8.859375 -2.96875 C 8.859375 -2.34375 8.707031 -1.789062 8.40625 -1.3125 C 8.113281 -0.832031 7.664062 -0.457031 7.0625 -0.1875 C 6.46875 0.0703125 5.738281 0.203125 4.875 0.203125 Z M 4.875 0.203125 "/></g></g><g style="fill:#0cc0df;fill-opacity:1;"><g transform="translate(33.708252, 18.487256)"><path style="stroke:none" d="M 4.40625 0.203125 C 3.351562 0.203125 2.53125 -0.0664062 1.9375 -0.609375 C 1.351562 -1.160156 1.0625 -1.945312 1.0625 -2.96875 C 1.0625 -3.601562 1.191406 -4.140625 1.453125 -4.578125 C 1.710938 -5.015625 2.113281 -5.367188 2.65625 -5.640625 C 3.207031 -5.921875 3.925781 -6.132812 4.8125 -6.28125 C 5.59375 -6.40625 6.179688 -6.546875 6.578125 -6.703125 C 6.984375 -6.867188 7.253906 -7.050781 7.390625 -7.25 C 7.535156 -7.457031 7.609375 -7.710938 7.609375 -8.015625 C 7.609375 -8.492188 7.441406 -8.863281 7.109375 -9.125 C 6.773438 -9.382812 6.238281 -9.515625 5.5 -9.515625 C 4.8125 -9.515625 4.21875 -9.378906 3.71875 -9.109375 C 3.226562 -8.835938 2.773438 -8.441406 2.359375 -7.921875 L 2.171875 -7.921875 L 1.390625 -9.015625 C 1.847656 -9.585938 2.425781 -10.039062 3.125 -10.375 C 3.820312 -10.71875 4.613281 -10.890625 5.5 -10.890625 C 6.757812 -10.890625 7.6875 -10.613281 8.28125 -10.0625 C 8.882812 -9.507812 9.1875 -8.742188 9.1875 -7.765625 L 9.1875 -2.109375 C 9.1875 -1.515625 9.4375 -1.21875 9.9375 -1.21875 C 10.101562 -1.21875 10.265625 -1.242188 10.421875 -1.296875 L 10.5625 -1.265625 L 10.75 -0.171875 C 10.632812 -0.0859375 10.476562 -0.0234375 10.28125 0.015625 C 10.09375 0.0546875 9.898438 0.078125 9.703125 0.078125 C 9.109375 0.078125 8.660156 -0.0507812 8.359375 -0.3125 C 8.066406 -0.570312 7.878906 -0.953125 7.796875 -1.453125 L 7.59375 -1.46875 C 7.28125 -0.90625 6.863281 -0.484375 6.34375 -0.203125 C 5.832031 0.0664062 5.1875 0.203125 4.40625 0.203125 Z M 4.75 -1.0625 C 5.351562 -1.0625 5.867188 -1.195312 6.296875 -1.46875 C 6.734375 -1.738281 7.066406 -2.125 7.296875 -2.625 C 7.535156 -3.125 7.65625 -3.695312 7.65625 -4.34375 L 7.65625 -5.703125 L 7.46875 -5.75 C 7.226562 -5.582031 6.9375 -5.441406 6.59375 -5.328125 C 6.25 -5.210938 5.773438 -5.109375 5.171875 -5.015625 C 4.546875 -4.929688 4.050781 -4.800781 3.6875 -4.625 C 3.320312 -4.457031 3.0625 -4.238281 2.90625 -3.96875 C 2.75 -3.695312 2.671875 -3.363281 2.671875 -2.96875 C 2.671875 -2.34375 2.851562 -1.867188 3.21875 -1.546875 C 3.59375 -1.222656 4.101562 -1.0625 4.75 -1.0625 Z M 4.75 -1.0625 "/></g></g><g style="fill:#0cc0df;fill-opacity:1;"><g transform="translate(44.760141, 18.487256)"><path style="stroke:none" d="M 1.859375 0 L 1.859375 -10.6875 L 3.359375 -10.6875 L 3.359375 -9.015625 L 3.5625 -8.96875 C 4.0625 -10.175781 5 -10.78125 6.375 -10.78125 C 7.101562 -10.78125 7.648438 -10.648438 8.015625 -10.390625 L 7.609375 -9.046875 L 7.40625 -9.015625 C 7.007812 -9.210938 6.570312 -9.3125 6.09375 -9.3125 C 5.238281 -9.3125 4.582031 -8.988281 4.125 -8.34375 C 3.664062 -7.707031 3.4375 -6.671875 3.4375 -5.234375 L 3.4375 0 Z M 1.859375 0 "/></g></g><g style="fill:#0cc0df;fill-opacity:1;"><g transform="translate(52.809242, 18.487256)"><path style="stroke:none" d="M 4.40625 0.203125 C 3.351562 0.203125 2.53125 -0.0664062 1.9375 -0.609375 C 1.351562 -1.160156 1.0625 -1.945312 1.0625 -2.96875 C 1.0625 -3.601562 1.191406 -4.140625 1.453125 -4.578125 C 1.710938 -5.015625 2.113281 -5.367188 2.65625 -5.640625 C 3.207031 -5.921875 3.925781 -6.132812 4.8125 -6.28125 C 5.59375 -6.40625 6.179688 -6.546875 6.578125 -6.703125 C 6.984375 -6.867188 7.253906 -7.050781 7.390625 -7.25 C 7.535156 -7.457031 7.609375 -7.710938 7.609375 -8.015625 C 7.609375 -8.492188 7.441406 -8.863281 7.109375 -9.125 C 6.773438 -9.382812 6.238281 -9.515625 5.5 -9.515625 C 4.8125 -9.515625 4.21875 -9.378906 3.71875 -9.109375 C 3.226562 -8.835938 2.773438 -8.441406 2.359375 -7.921875 L 2.171875 -7.921875 L 1.390625 -9.015625 C 1.847656 -9.585938 2.425781 -10.039062 3.125 -10.375 C 3.820312 -10.71875 4.613281 -10.890625 5.5 -10.890625 C 6.757812 -10.890625 7.6875 -10.613281 8.28125 -10.0625 C 8.882812 -9.507812 9.1875 -8.742188 9.1875 -7.765625 L 9.1875 -2.109375 C 9.1875 -1.515625 9.4375 -1.21875 9.9375 -1.21875 C 10.101562 -1.21875 10.265625 -1.242188 10.421875 -1.296875 L 10.5625 -1.265625 L 10.75 -0.171875 C 10.632812 -0.0859375 10.476562 -0.0234375 10.28125 0.015625 C 10.09375 0.0546875 9.898438 0.078125 9.703125 0.078125 C 9.109375 0.078125 8.660156 -0.0507812 8.359375 -0.3125 C 8.066406 -0.570312 7.878906 -0.953125 7.796875 -1.453125 L 7.59375 -1.46875 C 7.28125 -0.90625 6.863281 -0.484375 6.34375 -0.203125 C 5.832031 0.0664062 5.1875 0.203125 4.40625 0.203125 Z M 4.75 -1.0625 C 5.351562 -1.0625 5.867188 -1.195312 6.296875 -1.46875 C 6.734375 -1.738281 7.066406 -2.125 7.296875 -2.625 C 7.535156 -3.125 7.65625 -3.695312 7.65625 -4.34375 L 7.65625 -5.703125 L 7.46875 -5.75 C 7.226562 -5.582031 6.9375 -5.441406 6.59375 -5.328125 C 6.25 -5.210938 5.773438 -5.109375 5.171875 -5.015625 C 4.546875 -4.929688 4.050781 -4.800781 3.6875 -4.625 C 3.320312 -4.457031 3.0625 -4.238281 2.90625 -3.96875 C 2.75 -3.695312 2.671875 -3.363281 2.671875 -2.96875 C 2.671875 -2.34375 2.851562 -1.867188 3.21875 -1.546875 C 3.59375 -1.222656 4.101562 -1.0625 4.75 -1.0625 Z M 4.75 -1.0625 "/></g></g><g style="fill:#0cc0df;fill-opacity:1;"><g transform="translate(63.861132, 18.487256)"><path style="stroke:none" d="M 1.859375 0 L 1.859375 -14.984375 L 3.4375 -14.984375 L 3.4375 -9.171875 L 3.640625 -9.125 C 4.398438 -10.300781 5.503906 -10.890625 6.953125 -10.890625 C 8.234375 -10.890625 9.160156 -10.5625 9.734375 -9.90625 C 10.316406 -9.25 10.609375 -8.238281 10.609375 -6.875 L 10.609375 0 L 9.03125 0 L 9.03125 -6.84375 C 9.03125 -7.488281 8.945312 -8.003906 8.78125 -8.390625 C 8.613281 -8.785156 8.359375 -9.070312 8.015625 -9.25 C 7.671875 -9.425781 7.21875 -9.515625 6.65625 -9.515625 C 5.6875 -9.515625 4.90625 -9.203125 4.3125 -8.578125 C 3.726562 -7.953125 3.4375 -6.921875 3.4375 -5.484375 L 3.4375 0 Z M 1.859375 0 "/></g></g><g style="fill:#0cc0df;fill-opacity:1;"><g transform="translate(76.162533, 18.487256)"><path style="stroke:none" d=""/></g></g><g style="fill:#0cc0df;fill-opacity:1;"><g transform="translate(81.024977, 18.487256)"><path style="stroke:none" d="M 4.40625 0.203125 C 3.351562 0.203125 2.53125 -0.0664062 1.9375 -0.609375 C 1.351562 -1.160156 1.0625 -1.945312 1.0625 -2.96875 C 1.0625 -3.601562 1.191406 -4.140625 1.453125 -4.578125 C 1.710938 -5.015625 2.113281 -5.367188 2.65625 -5.640625 C 3.207031 -5.921875 3.925781 -6.132812 4.8125 -6.28125 C 5.59375 -6.40625 6.179688 -6.546875 6.578125 -6.703125 C 6.984375 -6.867188 7.253906 -7.050781 7.390625 -7.25 C 7.535156 -7.457031 7.609375 -7.710938 7.609375 -8.015625 C 7.609375 -8.492188 7.441406 -8.863281 7.109375 -9.125 C 6.773438 -9.382812 6.238281 -9.515625 5.5 -9.515625 C 4.8125 -9.515625 4.21875 -9.378906 3.71875 -9.109375 C 3.226562 -8.835938 2.773438 -8.441406 2.359375 -7.921875 L 2.171875 -7.921875 L 1.390625 -9.015625 C 1.847656 -9.585938 2.425781 -10.039062 3.125 -10.375 C 3.820312 -10.71875 4.613281 -10.890625 5.5 -10.890625 C 6.757812 -10.890625 7.6875 -10.613281 8.28125 -10.0625 C 8.882812 -9.507812 9.1875 -8.742188 9.1875 -7.765625 L 9.1875 -2.109375 C 9.1875 -1.515625 9.4375 -1.21875 9.9375 -1.21875 C 10.101562 -1.21875 10.265625 -1.242188 10.421875 -1.296875 L 10.5625 -1.265625 L 10.75 -0.171875 C 10.632812 -0.0859375 10.476562 -0.0234375 10.28125 0.015625 C 10.09375 0.0546875 9.898438 0.078125 9.703125 0.078125 C 9.109375 0.078125 8.660156 -0.0507812 8.359375 -0.3125 C 8.066406 -0.570312 7.878906 -0.953125 7.796875 -1.453125 L 7.59375 -1.46875 C 7.28125 -0.90625 6.863281 -0.484375 6.34375 -0.203125 C 5.832031 0.0664062 5.1875 0.203125 4.40625 0.203125 Z M 4.75 -1.0625 C 5.351562 -1.0625 5.867188 -1.195312 6.296875 -1.46875 C 6.734375 -1.738281 7.066406 -2.125 7.296875 -2.625 C 7.535156 -3.125 7.65625 -3.695312 7.65625 -4.34375 L 7.65625 -5.703125 L 7.46875 -5.75 C 7.226562 -5.582031 6.9375 -5.441406 6.59375 -5.328125 C 6.25 -5.210938 5.773438 -5.109375 5.171875 -5.015625 C 4.546875 -4.929688 4.050781 -4.800781 3.6875 -4.625 C 3.320312 -4.457031 3.0625 -4.238281 2.90625 -3.96875 C 2.75 -3.695312 2.671875 -3.363281 2.671875 -2.96875 C 2.671875 -2.34375 2.851562 -1.867188 3.21875 -1.546875 C 3.59375 -1.222656 4.101562 -1.0625 4.75 -1.0625 Z M 4.75 -1.0625 "/></g></g><g style="fill:#0cc0df;fill-opacity:1;"><g transform="translate(91.950891, 18.487256)"><path style="stroke:none" d="M 7.234375 -1.703125 L 7.734375 -0.5625 C 7.484375 -0.3125 7.148438 -0.125 6.734375 0 C 6.328125 0.132812 5.882812 0.203125 5.40625 0.203125 C 3.363281 0.203125 2.34375 -0.828125 2.34375 -2.890625 L 2.34375 -9.40625 L 0.484375 -9.40625 L 0.484375 -10.703125 L 2.34375 -10.703125 L 2.34375 -12.953125 L 3.921875 -13.21875 L 3.921875 -10.703125 L 7.359375 -10.703125 L 7.359375 -9.40625 L 3.921875 -9.40625 L 3.921875 -3.046875 C 3.921875 -1.828125 4.453125 -1.21875 5.515625 -1.21875 C 6.097656 -1.21875 6.601562 -1.378906 7.03125 -1.703125 Z M 7.234375 -1.703125 "/></g></g><g style="fill:#0cc0df;fill-opacity:1;"><g transform="translate(100.0966, 18.487256)"><path style="stroke:none" d=""/></g></g><g style="fill:#0cc0df;fill-opacity:1;"><g transform="translate(24.605752, 36.913702)"><path style="stroke:none" d="M 4.40625 0.203125 C 3.351562 0.203125 2.53125 -0.0664062 1.9375 -0.609375 C 1.351562 -1.160156 1.0625 -1.945312 1.0625 -2.96875 C 1.0625 -3.601562 1.191406 -4.140625 1.453125 -4.578125 C 1.710938 -5.015625 2.113281 -5.367188 2.65625 -5.640625 C 3.207031 -5.921875 3.925781 -6.132812 4.8125 -6.28125 C 5.59375 -6.40625 6.179688 -6.546875 6.578125 -6.703125 C 6.984375 -6.867188 7.253906 -7.050781 7.390625 -7.25 C 7.535156 -7.457031 7.609375 -7.710938 7.609375 -8.015625 C 7.609375 -8.492188 7.441406 -8.863281 7.109375 -9.125 C 6.773438 -9.382812 6.238281 -9.515625 5.5 -9.515625 C 4.8125 -9.515625 4.21875 -9.378906 3.71875 -9.109375 C 3.226562 -8.835938 2.773438 -8.441406 2.359375 -7.921875 L 2.171875 -7.921875 L 1.390625 -9.015625 C 1.847656 -9.585938 2.425781 -10.039062 3.125 -10.375 C 3.820312 -10.71875 4.613281 -10.890625 5.5 -10.890625 C 6.757812 -10.890625 7.6875 -10.613281 8.28125 -10.0625 C 8.882812 -9.507812 9.1875 -8.742188 9.1875 -7.765625 L 9.1875 -2.109375 C 9.1875 -1.515625 9.4375 -1.21875 9.9375 -1.21875 C 10.101562 -1.21875 10.265625 -1.242188 10.421875 -1.296875 L 10.5625 -1.265625 L 10.75 -0.171875 C 10.632812 -0.0859375 10.476562 -0.0234375 10.28125 0.015625 C 10.09375 0.0546875 9.898438 0.078125 9.703125 0.078125 C 9.109375 0.078125 8.660156 -0.0507812 8.359375 -0.3125 C 8.066406 -0.570312 7.878906 -0.953125 7.796875 -1.453125 L 7.59375 -1.46875 C 7.28125 -0.90625 6.863281 -0.484375 6.34375 -0.203125 C 5.832031 0.0664062 5.1875 0.203125 4.40625 0.203125 Z M 4.75 -1.0625 C 5.351562 -1.0625 5.867188 -1.195312 6.296875 -1.46875 C 6.734375 -1.738281 7.066406 -2.125 7.296875 -2.625 C 7.535156 -3.125 7.65625 -3.695312 7.65625 -4.34375 L 7.65625 -5.703125 L 7.46875 -5.75 C 7.226562 -5.582031 6.9375 -5.441406 6.59375 -5.328125 C 6.25 -5.210938 5.773438 -5.109375 5.171875 -5.015625 C 4.546875 -4.929688 4.050781 -4.800781 3.6875 -4.625 C 3.320312 -4.457031 3.0625 -4.238281 2.90625 -3.96875 C 2.75 -3.695312 2.671875 -3.363281 2.671875 -2.96875 C 2.671875 -2.34375 2.851562 -1.867188 3.21875 -1.546875 C 3.59375 -1.222656 4.101562 -1.0625 4.75 -1.0625 Z M 4.75 -1.0625 "/></g></g><g style="fill:#0cc0df;fill-opacity:1;"><g transform="translate(35.657641, 36.913702)"><path style="stroke:none" d="M 4.25 0.203125 C 3.5 0.203125 2.90625 -0.0078125 2.46875 -0.4375 C 2.039062 -0.863281 1.828125 -1.503906 1.828125 -2.359375 L 1.828125 -14.984375 L 3.40625 -14.984375 L 3.40625 -2.46875 C 3.40625 -2.019531 3.488281 -1.695312 3.65625 -1.5 C 3.832031 -1.3125 4.097656 -1.21875 4.453125 -1.21875 C 4.671875 -1.21875 4.894531 -1.25 5.125 -1.3125 L 5.265625 -1.28125 L 5.453125 -0.03125 C 5.328125 0.0390625 5.15625 0.0976562 4.9375 0.140625 C 4.726562 0.179688 4.5 0.203125 4.25 0.203125 Z M 4.25 0.203125 "/></g></g><g style="fill:#0cc0df;fill-opacity:1;"><g transform="translate(41.469327, 36.913702)"><path style="stroke:none" d="M 7.234375 -1.703125 L 7.734375 -0.5625 C 7.484375 -0.3125 7.148438 -0.125 6.734375 0 C 6.328125 0.132812 5.882812 0.203125 5.40625 0.203125 C 3.363281 0.203125 2.34375 -0.828125 2.34375 -2.890625 L 2.34375 -9.40625 L 0.484375 -9.40625 L 0.484375 -10.703125 L 2.34375 -10.703125 L 2.34375 -12.953125 L 3.921875 -13.21875 L 3.921875 -10.703125 L 7.359375 -10.703125 L 7.359375 -9.40625 L 3.921875 -9.40625 L 3.921875 -3.046875 C 3.921875 -1.828125 4.453125 -1.21875 5.515625 -1.21875 C 6.097656 -1.21875 6.601562 -1.378906 7.03125 -1.703125 Z M 7.234375 -1.703125 "/></g></g><g style="fill:#0cc0df;fill-opacity:1;"><g transform="translate(49.605687, 36.913702)"><path style="stroke:none" d="M 2.65625 -12.75 C 2.320312 -12.75 2.046875 -12.851562 1.828125 -13.0625 C 1.617188 -13.269531 1.515625 -13.535156 1.515625 -13.859375 C 1.515625 -14.179688 1.617188 -14.445312 1.828125 -14.65625 C 2.046875 -14.875 2.320312 -14.984375 2.65625 -14.984375 C 2.988281 -14.984375 3.257812 -14.875 3.46875 -14.65625 C 3.675781 -14.445312 3.78125 -14.179688 3.78125 -13.859375 C 3.78125 -13.535156 3.675781 -13.269531 3.46875 -13.0625 C 3.257812 -12.851562 2.988281 -12.75 2.65625 -12.75 Z M 1.859375 0 L 1.859375 -10.6875 L 3.4375 -10.6875 L 3.4375 0 Z M 1.859375 0 "/></g></g><g style="fill:#0cc0df;fill-opacity:1;"><g transform="translate(54.904008, 36.913702)"><path style="stroke:none" d="M 7.234375 -1.703125 L 7.734375 -0.5625 C 7.484375 -0.3125 7.148438 -0.125 6.734375 0 C 6.328125 0.132812 5.882812 0.203125 5.40625 0.203125 C 3.363281 0.203125 2.34375 -0.828125 2.34375 -2.890625 L 2.34375 -9.40625 L 0.484375 -9.40625 L 0.484375 -10.703125 L 2.34375 -10.703125 L 2.34375 -12.953125 L 3.921875 -13.21875 L 3.921875 -10.703125 L 7.359375 -10.703125 L 7.359375 -9.40625 L 3.921875 -9.40625 L 3.921875 -3.046875 C 3.921875 -1.828125 4.453125 -1.21875 5.515625 -1.21875 C 6.097656 -1.21875 6.601562 -1.378906 7.03125 -1.703125 Z M 7.234375 -1.703125 "/></g></g><g style="fill:#0cc0df;fill-opacity:1;"><g transform="translate(63.040368, 36.913702)"><path style="stroke:none" d="M 5.28125 0.203125 C 4.070312 0.203125 3.171875 -0.113281 2.578125 -0.75 C 1.992188 -1.394531 1.703125 -2.332031 1.703125 -3.5625 L 1.703125 -10.6875 L 3.28125 -10.6875 L 3.28125 -3.609375 C 3.28125 -1.984375 4.039062 -1.171875 5.5625 -1.171875 C 6.53125 -1.171875 7.296875 -1.488281 7.859375 -2.125 C 8.421875 -2.757812 8.703125 -3.785156 8.703125 -5.203125 L 8.703125 -10.6875 L 10.28125 -10.6875 L 10.28125 0 L 8.78125 0 L 8.78125 -1.671875 L 8.578125 -1.71875 C 8.210938 -1.070312 7.769531 -0.585938 7.25 -0.265625 C 6.738281 0.046875 6.082031 0.203125 5.28125 0.203125 Z M 5.28125 0.203125 "/></g></g><g style="fill:#0cc0df;fill-opacity:1;"><g transform="translate(75.177105, 36.913702)"><path style="stroke:none" d="M 5.546875 0.203125 C 4.679688 0.203125 3.921875 0 3.265625 -0.40625 C 2.609375 -0.820312 2.09375 -1.441406 1.71875 -2.265625 C 1.351562 -3.085938 1.171875 -4.113281 1.171875 -5.34375 C 1.171875 -6.5625 1.363281 -7.582031 1.75 -8.40625 C 2.132812 -9.238281 2.664062 -9.859375 3.34375 -10.265625 C 4.03125 -10.679688 4.820312 -10.890625 5.71875 -10.890625 C 6.4375 -10.890625 7.078125 -10.753906 7.640625 -10.484375 C 8.210938 -10.222656 8.703125 -9.785156 9.109375 -9.171875 L 9.3125 -9.203125 L 9.3125 -14.984375 L 10.890625 -14.984375 L 10.890625 0 L 9.3125 0 L 9.3125 -1.5625 L 9.109375 -1.59375 C 8.753906 -1.0625 8.28125 -0.628906 7.6875 -0.296875 C 7.09375 0.0351562 6.378906 0.203125 5.546875 0.203125 Z M 6.03125 -1.21875 C 7.03125 -1.21875 7.828125 -1.554688 8.421875 -2.234375 C 9.015625 -2.910156 9.3125 -3.945312 9.3125 -5.34375 C 9.3125 -6.738281 9.015625 -7.773438 8.421875 -8.453125 C 7.828125 -9.128906 7.03125 -9.46875 6.03125 -9.46875 C 5.007812 -9.46875 4.21875 -9.132812 3.65625 -8.46875 C 3.101562 -7.8125 2.828125 -6.769531 2.828125 -5.34375 C 2.828125 -2.59375 3.894531 -1.21875 6.03125 -1.21875 Z M 6.03125 -1.21875 "/></g></g><g style="fill:#0cc0df;fill-opacity:1;"><g transform="translate(87.933756, 36.913702)"><path style="stroke:none" d="M 10.1875 -4.984375 L 2.84375 -4.984375 C 2.882812 -3.679688 3.191406 -2.726562 3.765625 -2.125 C 4.347656 -1.519531 5.144531 -1.21875 6.15625 -1.21875 C 6.914062 -1.21875 7.523438 -1.351562 7.984375 -1.625 C 8.453125 -1.894531 8.820312 -2.316406 9.09375 -2.890625 L 9.296875 -2.890625 L 10.3125 -2.28125 C 10.007812 -1.507812 9.515625 -0.898438 8.828125 -0.453125 C 8.148438 -0.015625 7.257812 0.203125 6.15625 0.203125 C 5.125 0.203125 4.234375 0 3.484375 -0.40625 C 2.742188 -0.8125 2.171875 -1.425781 1.765625 -2.25 C 1.367188 -3.082031 1.171875 -4.113281 1.171875 -5.34375 C 1.171875 -6.550781 1.378906 -7.570312 1.796875 -8.40625 C 2.222656 -9.238281 2.800781 -9.859375 3.53125 -10.265625 C 4.269531 -10.679688 5.113281 -10.890625 6.0625 -10.890625 C 7.425781 -10.890625 8.492188 -10.503906 9.265625 -9.734375 C 10.035156 -8.960938 10.421875 -7.816406 10.421875 -6.296875 C 10.421875 -5.703125 10.410156 -5.300781 10.390625 -5.09375 Z M 8.859375 -6.296875 C 8.835938 -7.429688 8.585938 -8.253906 8.109375 -8.765625 C 7.628906 -9.285156 6.945312 -9.546875 6.0625 -9.546875 C 5.125 -9.546875 4.382812 -9.285156 3.84375 -8.765625 C 3.3125 -8.253906 2.988281 -7.429688 2.875 -6.296875 Z M 8.859375 -6.296875 "/></g></g><g style="fill:#0cc0df;fill-opacity:1;"><g transform="translate(99.33363, 36.913702)"><path style="stroke:none" d=""/></g></g><path style=" stroke:none;fill-rule:nonzero;fill:#0cc0df;fill-opacity:1;" d="M 128.542969 24.019531 C 128.4375 24.019531 128.332031 23.976562 128.25 23.898438 L 119.476562 15.121094 L 110.699219 23.898438 C 110.535156 24.058594 110.273438 24.058594 110.113281 23.898438 C 109.953125 23.734375 109.953125 23.472656 110.113281 23.308594 L 119.183594 14.242188 C 119.34375 14.078125 119.605469 14.078125 119.765625 14.242188 L 128.835938 23.308594 C 129 23.472656 129 23.734375 128.835938 23.898438 C 128.753906 23.976562 128.648438 24.019531 128.542969 24.019531 "/><g clip-rule="nonzero" clip-path="url(#407beb50f5)"><path style=" stroke:none;fill-rule:nonzero;fill:#0cc0df;fill-opacity:1;" d="M 113.226562 26.839844 C 113.121094 26.839844 113.015625 26.796875 112.933594 26.71875 L 104.144531 17.929688 L 100.875 21.199219 C 100.714844 21.359375 100.453125 21.359375 100.289062 21.199219 C 100.128906 21.035156 100.128906 20.773438 100.289062 20.613281 L 103.851562 17.050781 C 104.015625 16.886719 104.277344 16.886719 104.4375 17.050781 L 113.519531 26.132812 C 113.679688 26.292969 113.679688 26.554688 113.519531 26.71875 C 113.4375 26.796875 113.332031 26.839844 113.226562 26.839844 "/></g><path style=" stroke:none;fill-rule:nonzero;fill:#0cc0df;fill-opacity:1;" d="M 125.722656 26.839844 C 125.617188 26.839844 125.511719 26.796875 125.429688 26.71875 C 125.269531 26.554688 125.269531 26.292969 125.429688 26.132812 L 134.511719 17.050781 C 134.671875 16.886719 134.933594 16.886719 135.097656 17.050781 L 138.660156 20.613281 C 138.820312 20.773438 138.820312 21.035156 138.660156 21.199219 C 138.496094 21.359375 138.234375 21.359375 138.074219 21.199219 L 134.804688 17.929688 L 126.015625 26.71875 C 125.933594 26.796875 125.828125 26.839844 125.722656 26.839844 "/><path style=" stroke:none;fill-rule:nonzero;fill:#0cc0df;fill-opacity:1;" d="M 112.472656 12.027344 C 112.328125 12.027344 112.191406 11.953125 112.113281 11.816406 L 109.734375 7.695312 C 109.617188 7.496094 109.6875 7.242188 109.882812 7.128906 C 110.082031 7.015625 110.335938 7.082031 110.449219 7.28125 L 112.832031 11.402344 C 112.945312 11.601562 112.878906 11.855469 112.679688 11.96875 C 112.613281 12.007812 112.542969 12.027344 112.472656 12.027344 "/><path style=" stroke:none;fill-rule:nonzero;fill:#0cc0df;fill-opacity:1;" d="M 115.847656 10.628906 C 115.667969 10.628906 115.5 10.503906 115.449219 10.320312 L 114.214844 5.71875 C 114.15625 5.496094 114.289062 5.269531 114.507812 5.210938 C 114.730469 5.152344 114.957031 5.28125 115.015625 5.503906 L 116.25 10.105469 C 116.308594 10.328125 116.175781 10.554688 115.957031 10.613281 C 115.921875 10.621094 115.886719 10.628906 115.847656 10.628906 "/><g clip-rule="nonzero" clip-path="url(#4c5a8242e2)"><path style=" stroke:none;fill-rule:nonzero;fill:#0cc0df;fill-opacity:1;" d="M 119.476562 10.152344 C 119.246094 10.152344 119.0625 9.964844 119.0625 9.738281 L 119.0625 4.972656 C 119.0625 4.742188 119.246094 4.558594 119.476562 4.558594 C 119.703125 4.558594 119.890625 4.742188 119.890625 4.972656 L 119.890625 9.738281 C 119.890625 9.964844 119.703125 10.152344 119.476562 10.152344 "/></g><path style=" stroke:none;fill-rule:nonzero;fill:#0cc0df;fill-opacity:1;" d="M 123.101562 10.628906 C 123.066406 10.628906 123.03125 10.621094 122.996094 10.613281 C 122.773438 10.554688 122.640625 10.328125 122.699219 10.105469 L 123.933594 5.503906 C 123.992188 5.285156 124.21875 5.152344 124.441406 5.210938 C 124.660156 5.269531 124.792969 5.496094 124.734375 5.71875 L 123.5 10.320312 C 123.453125 10.503906 123.285156 10.628906 123.101562 10.628906 "/><path style=" stroke:none;fill-rule:nonzero;fill:#0cc0df;fill-opacity:1;" d="M 126.480469 12.027344 C 126.410156 12.027344 126.335938 12.011719 126.273438 11.972656 C 126.074219 11.859375 126.007812 11.605469 126.121094 11.40625 L 128.5 7.28125 C 128.617188 7.085938 128.871094 7.015625 129.066406 7.132812 C 129.265625 7.246094 129.332031 7.5 129.21875 7.695312 L 126.839844 11.820312 C 126.761719 11.953125 126.621094 12.027344 126.480469 12.027344 "/><path style=" stroke:none;fill-rule:nonzero;fill:#0cc0df;fill-opacity:1;" d="M 129.378906 14.253906 C 129.273438 14.253906 129.167969 14.214844 129.085938 14.132812 C 128.925781 13.972656 128.925781 13.710938 129.085938 13.546875 L 132.457031 10.179688 C 132.617188 10.015625 132.878906 10.015625 133.042969 10.179688 C 133.203125 10.339844 133.203125 10.601562 133.042969 10.761719 L 129.671875 14.132812 C 129.59375 14.214844 129.488281 14.253906 129.378906 14.253906 "/><path style=" stroke:none;fill-rule:nonzero;fill:#0cc0df;fill-opacity:1;" d="M 109.570312 14.253906 C 109.464844 14.253906 109.359375 14.214844 109.277344 14.132812 L 105.90625 10.761719 C 105.746094 10.601562 105.746094 10.339844 105.90625 10.179688 C 106.070312 10.015625 106.332031 10.015625 106.492188 10.179688 L 109.863281 13.546875 C 110.023438 13.710938 110.023438 13.972656 109.863281 14.132812 C 109.78125 14.214844 109.675781 14.253906 109.570312 14.253906 "/><path style=" stroke:none;fill-rule:nonzero;fill:#0cc0df;fill-opacity:1;" d="M 133.59375 35.980469 C 133.515625 35.980469 133.441406 35.960938 133.371094 35.917969 C 129.21875 33.273438 124.414062 31.875 119.476562 31.875 C 114.535156 31.875 109.730469 33.273438 105.578125 35.917969 C 105.386719 36.039062 105.128906 35.984375 105.007812 35.789062 C 104.882812 35.597656 104.941406 35.339844 105.132812 35.21875 C 109.417969 32.488281 114.375 31.046875 119.476562 31.046875 C 124.574219 31.046875 129.53125 32.488281 133.816406 35.21875 C 134.007812 35.339844 134.066406 35.597656 133.941406 35.789062 C 133.863281 35.914062 133.730469 35.980469 133.59375 35.980469 "/><g clip-rule="nonzero" clip-path="url(#a798194768)"><path style=" stroke:none;fill-rule:nonzero;fill:#0cc0df;fill-opacity:1;" d="M 127.644531 36.664062 C 127.59375 36.664062 127.535156 36.652344 127.484375 36.628906 C 124.945312 35.554688 122.25 35.007812 119.476562 35.007812 C 116.699219 35.007812 114.003906 35.554688 111.464844 36.628906 C 111.253906 36.722656 111.011719 36.621094 110.921875 36.410156 C 110.832031 36.199219 110.933594 35.957031 111.144531 35.867188 C 113.785156 34.746094 116.585938 34.179688 119.476562 34.179688 C 122.363281 34.179688 125.164062 34.746094 127.804688 35.867188 C 128.019531 35.957031 128.117188 36.199219 128.027344 36.410156 C 127.960938 36.570312 127.804688 36.664062 127.644531 36.664062 "/></g></g></svg>